<svg xmlns="http://www.w3.org/2000/svg" xmlns:xlink="http://www.w3.org/1999/xlink" width="91" height="41" viewBox="0 0 91 41">
  <defs>
    <clipPath id="clip-path">
      <rect id="Rectangle_1318" data-name="Rectangle 1318" width="91" height="41" transform="translate(-0.098 0)" fill="#fff"/>
    </clipPath>
  </defs>
  <g id="Mask_Group_4" data-name="Mask Group 4" transform="translate(0.098 0)" clip-path="url(#clip-path)">
    <g id="MS_RVB_Master" transform="translate(17.987 -0.334)">
      <path id="Path_1802" data-name="Path 1802" d="M30.443,3.855C17.566,5.082,7.8,11.022,7.8,18.165c0,4.864,4.531,9.17,11.488,11.81.1.037.133-.02.056-.085A13.84,13.84,0,0,1,14,19.364c0-7.525,7.018-13.829,16.448-15.487C30.531,3.86,30.531,3.847,30.443,3.855ZM20.381,6.7c-5.385,2.832-8.827,7.156-8.827,12,0,3.856,2.18,7.382,5.785,10.089.2.151.181.184-.032.05-4.249-2.676-7.188-6.274-7.188-10.251,0-4.858,4.219-9.19,10.223-11.921C20.591,6.551,20.615,6.572,20.381,6.7Zm38.261,3.614a2.681,2.681,0,0,1-.117.5c-.15.442-.318.865-.5,1.286l.014-.03a10.074,10.074,0,0,1,2.654,6.519c0,4.125-3.164,7.843-7.671,10.548-.055.033-.062.025-.009-.012,3.878-2.748,6.245-6.406,6.245-10.424a10.823,10.823,0,0,0-1.66-5.675l.018-.038c-.4.819-.857,1.676-1.381,2.683a12.08,12.08,0,0,1,.581,3.7c0,4.093-2.076,7.825-5.487,10.644-.03.025-.017.047.021.034,7.057-2.634,11.667-6.971,11.667-11.877C63.012,15.27,61.407,12.574,58.643,10.309Zm-18.3-6.455c-.081-.008-.083,0,0,.018a24.831,24.831,0,0,1,8.6,3.161,20.724,20.724,0,0,1,2.849-.574A43.008,43.008,0,0,0,40.345,3.854Z" transform="translate(-7.797 -2.995)" fill="#fff"/>
      <path id="Path_1803" data-name="Path 1803" d="M35.895,22.058l1.814-.3-.1-3.977-2.725.85.994,1.309.009.958h.006s.354-.054.447-.072a.127.127,0,0,0,.11-.089.029.029,0,0,1,0-.01c-.014-.071-.13-.742-.177-.961a.2.2,0,0,1,.03-.176c.038-.066.128-.224.212-.361.021-.034.036-.056.055-.008a2.218,2.218,0,0,1,.2.211c.012.03.361,1.322.367,1.331s.159.106.162.168c0,.039,0,.092,0,.126.019.038-.026.09-.049.111s-.068.058-.062.079l.054.177s.015.051-.046.062l-1.846.312.237.071.311-.051v.236Zm-9.13-6.923-.059-.969-1.331.787.036.926ZM25.495,18l1.411-.67-.059-.936L25.46,17.1Zm1.766-4.16.068.987,1.356-.745-.11-1.02Zm-2.011.025s-.69-.863-.831-1.032a1.791,1.791,0,0,0-1.467-.2c-.738.149-.925.406-.925.556s.009,2.706.009,2.706Zm3.687,2.5-.107-.989-1.414.725.065.956Zm4.4-12.6.966.2.16,2.133-.169.118s-.513,1.77-.642,2.586c1.527.156,2.371.33,2.371.33s-.6-2.107-.721-2.537-.217-.762-.409-.695l-.006,0-.245-1.867.955.2-.026-.189-.955-.212-.1-.733-.15-.034-.13.083.047.61-.968-.214ZM18.653,21.247l1.356-.644.008-.708-1.333.684Zm3.282-2.335-1.352.694-.015.733,1.368-.649v-.778ZM52.521,6.354c-3.856,0-10.1,2.759-12.561,4.1l-.208.106-.045.03A28.764,28.764,0,0,0,30.262,9.1a1.771,1.771,0,0,0-1.027.32c-.24.152-.458.294-.621.4l-.223.157.2,1.774,1.275-.784.672,6.009-.014,0-8.034,3.5s3.943-.382,4.791-.446,3.21-.3,3.834-.422c0,0,.559-1.323,1.066-2.393h0l.178-.372c.035-.071.068-.139.1-.2h0s0,0,0-.007c7.933-4.253,14.075-8,20.613-7.577,1.22.173,2.89.632,1.672,4.206l-.072.262c-.979,2.984-2.715,8.037-4.318,14.585a91.4,91.4,0,0,1,6.622-15.191C58.428,10.009,59.795,6.354,52.521,6.354Zm-21.242,4.4-.133-1.082q.493.02,1,.052l.135,1.054C31.937,10.764,31.6,10.756,31.279,10.755Zm1.336.038-.133-1.045c.336.025.676.055,1.015.089l.131,1.021C33.286,10.832,32.947,10.81,32.615,10.793Zm1.345.093-.13-1.015c.343.037.684.077,1.02.123l.127.994C34.638,10.949,34.3,10.915,33.96,10.886Zm1.351.142-.126-.987c.349.05.692.1,1.024.161l.123.966C36,11.117,35.657,11.069,35.311,11.027Zm1.358.194-.123-.96c.361.067.707.138,1.034.212l.118.94C37.372,11.346,37.026,11.282,36.668,11.221Zm1.36.24-.123-.91c.384.094.734.2,1.043.3l.017.122ZM21.935,16.989l-1.317.779-.013.751,1.329-.73Zm3.076-.953-.792.427-.015-1.07L24,15.517l-.857.513.015,1.008-.8.454.021,1.269.808-.413.008,1,1.091-.526L24.256,17.8l.8-.406Zm-8.6,9.046a.69.69,0,0,0,.577.574l-.027-2.237L18.1,22.95l.047-1-1.782.8Z" transform="translate(-7.099 -3.077)" fill="#fff"/>
      <path id="Path_1804" data-name="Path 1804" d="M36.338,17.721Zm.468,1.674a.075.075,0,0,1,.062.012l.2.16a.049.049,0,0,1,.019.035h0c0-.028,0-.092,0-.118a.115.115,0,0,0-.053-.109c-.045-.034-.107-.088-.107-.088l-.345-1.257a.3.3,0,0,0-.11-.173l-.13-.13a.2.2,0,0,1,.023.058C36.389,17.868,36.806,19.4,36.806,19.4Zm8.256-.32c-3.21.494-9.376,1.493-9.376,1.493v-.228l-.313.051-.244-.072h0a.074.074,0,0,1-.063-.051l-.041-.182c-.067-.038-.123-.081-.01-.256a.158.158,0,0,0,.022-.13s-.213-.671-.344-1.079l.035,2s-8.987,1.63-15.6,3.659c-.186.058-.178.092.013.051,2.863-.607,6.444-1.251,12.321-2.078,1.093-.136,3.933-.472,4.373-.515,4.49-.438,8.3-.8,9.9-.9,3.357-.2,5.538-.231,5.913.161q.323-1.125.636-2.156C50.305,18.086,47.717,18.668,45.062,19.076Zm-10.072-.663a.2.2,0,0,1,.1.106l.381.89s.03.149.163.128l.023,0h.012c.053,0,.045.056.045.056l-.026.164.336-.05s.021-.139.024-.177a.06.06,0,0,1,.058-.06.167.167,0,0,0,.124-.206.148.148,0,0,1-.127.089l-.43.071-.006-.953-1-1.311.019,1.1C34.784,18.308,34.939,18.39,34.991,18.412Z" transform="translate(-6.885 -1.597)" fill="#fff"/>
      <path id="Path_1805" data-name="Path 1805" d="M31.077,36.022a4.63,4.63,0,0,1-.028.475L30.7,39.924h1.506a.7.7,0,0,1-.271-.612c0-.128.01-.3.04-.585l.241-2.3a6.676,6.676,0,0,0,.04-.739,1.245,1.245,0,0,0-1.413-1.314,2.071,2.071,0,0,0-1.545.661l.231-2.251H27.985a.617.617,0,0,1,.32.591,1.962,1.962,0,0,1-.01.236l-.038.3-.494,4.84c-.086.788-.146.947-.444,1.175h1.836a.711.711,0,0,1-.28-.612,2.476,2.476,0,0,1,.019-.266l.028-.317.2-1.906a1.919,1.919,0,0,1,.376-1.154,1.018,1.018,0,0,1,.812-.405A.718.718,0,0,1,31.077,36.022Zm-8.55-5.369a3.317,3.317,0,0,1,.072-.663l.517-3.359,1.545,3.581,1.577-2.4c.145-.231.278-.431.371-.59l.3-.5L27,26.58l-.207,3.545c-.041.759-.166,1.054-.516,1.327h2.329c-.4-.243-.484-.464-.484-1.253,0-.115.01-.359.01-.536l.176-3.855a1.455,1.455,0,0,1,.649-1.379H27.091l-2.152,3.38-1.495-3.38h-1.8a1,1,0,0,1,.359.864,4.5,4.5,0,0,1-.062.736l-.71,4.087c-.135.77-.3,1.074-.774,1.337h2.423A.843.843,0,0,1,22.527,30.652Zm.944,9.136a4.613,4.613,0,0,0,1.146.18,2.31,2.31,0,0,0,2.5-2.285c0-.917-.381-1.4-1.731-2.18-.639-.379-.793-.557-.793-.916a.87.87,0,0,1,.959-.831,1.618,1.618,0,0,1,1.473,1l.1-2.179a.547.547,0,0,1-.432.19,1.418,1.418,0,0,1-.289-.043,3.412,3.412,0,0,0-.793-.093,2.253,2.253,0,0,0-2.412,2.2c0,.779.311,1.2,1.341,1.832,1.061.641,1.184.78,1.184,1.221a.963.963,0,0,1-1.052.958A2.052,2.052,0,0,1,22.9,37.569l-.062,2.3a.283.283,0,0,1,.257-.159.808.808,0,0,1,.208.031Zm10.141-11c.018-.266.03-.573.03-.721,0-1.412-.754-2.27-2-2.27-1.555,0-2.725,1.392-2.725,3.249A2.182,2.182,0,0,0,31.137,31.5a4.429,4.429,0,0,0,.7-.059l.328-.05c.183-.021.328-.038.416-.038a.357.357,0,0,1,.32.147l.485-1.757a2.372,2.372,0,0,1-1.8.868,1.457,1.457,0,0,1-1.458-1.56c0-.05,0-.139.009-.258h3.477Zm-2.139-2.153c.6,0,.891.355.939,1.173l.009.089H30.267C30.45,27.081,30.876,26.636,31.473,26.636Zm3.344,7.884H33.271a.637.637,0,0,1,.309.593,3.759,3.759,0,0,1-.04.534l-.32,3.1c-.086.791-.145.948-.444,1.176h1.836a.706.706,0,0,1-.271-.612,5.457,5.457,0,0,1,.039-.583Zm3.616-.148a1.729,1.729,0,0,0-1.257.573l.038-.425h-1.5a.645.645,0,0,1,.308.6,3.785,3.785,0,0,1-.038.524l-.5,4.9c-.078.78-.145.948-.445,1.176h1.836a.689.689,0,0,1-.281-.611c0-.062.012-.18.021-.269l.028-.317.089-.81a1.285,1.285,0,0,0,.947.357c1.36,0,2.462-1.5,2.462-3.368C40.142,35.312,39.457,34.372,38.433,34.372Zm-.957,4.811a.69.69,0,0,1-.658-.395l.309-2.992a1.074,1.074,0,0,1,.842-.464c.6,0,.937.523.937,1.433C38.907,38.156,38.3,39.183,37.476,39.183ZM45.2,34.445a.106.106,0,0,0,.069-.093c0-.075-.045-.106-.136-.106a.637.637,0,0,0-.1.01c0,.017,0,.03,0,.06v.2c0,.05,0,.084,0,.108a.477.477,0,0,0,.059,0c.01,0,.013,0,.013-.016v-.136h.01c.019,0,.03.005.047.038a.548.548,0,0,0,.05.089.055.055,0,0,0,.051.026.11.11,0,0,0,.046-.007v0a.547.547,0,0,1-.06-.092A.525.525,0,0,0,45.2,34.445Zm-.04-.025a.176.176,0,0,1-.055,0v-.132l.026,0a.063.063,0,0,1,.065.069A.065.065,0,0,1,45.157,34.421Zm-.017-.336a.354.354,0,1,0,.346.354A.351.351,0,0,0,45.14,34.085Zm0,.65a.3.3,0,1,1,.29-.3A.293.293,0,0,1,45.14,34.735Zm-2.473,1.849c-.618-.3-.706-.385-.706-.661,0-.4.32-.662.8-.662.58,0,.947.257,1.332.918l.155-1.867a.453.453,0,0,1-.367.168,2.672,2.672,0,0,1-.405-.039l-.222-.03a4.534,4.534,0,0,0-.541-.039,1.763,1.763,0,0,0-1.961,1.708c0,.7.269,1.028,1.227,1.492.784.385.917.513.917.878a.743.743,0,0,1-.82.73,1.715,1.715,0,0,1-1.595-1.244l-.078,2.153a.517.517,0,0,1,.389-.159,2.453,2.453,0,0,1,.364.039,5.053,5.053,0,0,0,.96.1,1.807,1.807,0,0,0,2-1.819,1.376,1.376,0,0,0-.379-1.006A3.247,3.247,0,0,0,42.667,36.584Zm2.86-10.046a2.18,2.18,0,0,1-.009.237l-.03.3-.175,1.687c-.095.939-.471,1.392-1.141,1.392a.723.723,0,0,1-.792-.829c0-.168.01-.277.019-.414l.308-2.963H42.163a.638.638,0,0,1,.311.594,1.908,1.908,0,0,1-.01.237l-.028.3L42.2,29.245c-.01.148-.018.3-.018.416a1.363,1.363,0,0,0,1.41,1.453,2.2,2.2,0,0,0,1.546-.652l-.049.413a1.372,1.372,0,0,1-1.574,1.373,1.982,1.982,0,0,1-1.653-.711l.049,1.808a.639.639,0,0,1,.512-.247,2,2,0,0,1,.2.018l.231.03a5.28,5.28,0,0,0,.814.059,2.488,2.488,0,0,0,2-.732,3.139,3.139,0,0,0,.617-1.916l.475-4.613H45.22A.637.637,0,0,1,45.528,26.538ZM34.459,32.4a.754.754,0,0,0-.734.741.583.583,0,0,0,.59.612.757.757,0,0,0,.735-.75A.582.582,0,0,0,34.459,32.4Zm.108-5.327-.318,3.1c-.087.789-.146.948-.444,1.175H35.64a.7.7,0,0,1-.269-.612,5.389,5.389,0,0,1,.037-.582l.194-1.876c.1-.9.54-1.463,1.168-1.463a.921.921,0,0,1,.679.278l.135-1.284a1.311,1.311,0,0,0-.194-.012,2.252,2.252,0,0,0-1.673.89l.078-.741H34.3a.645.645,0,0,1,.308.6,1.746,1.746,0,0,1-.01.227Zm5.831-.315a1.072,1.072,0,0,1,1.052.721l.047-1.767a.435.435,0,0,1-.377.187.984.984,0,0,1-.281-.039,3.352,3.352,0,0,0-.559-.059,2.938,2.938,0,0,0-2.7,3.2,2.218,2.218,0,0,0,2.05,2.5,4.319,4.319,0,0,0,.666-.059l.2-.039a2.219,2.219,0,0,1,.262-.02.329.329,0,0,1,.231.079L41.3,29.77a1.43,1.43,0,0,1-1.227.77c-.763,0-1.258-.621-1.258-1.59C38.821,27.7,39.507,26.756,40.4,26.756Z" transform="translate(-6.766 -0.832)" fill="#fff"/>
    </g>
  </g>
</svg>
